<?xml version="1.0" encoding="UTF-8"?>
<svg id="Layer_2" data-name="Layer 2" xmlns="http://www.w3.org/2000/svg" viewBox="0 0 210.71 210.71">
  <defs>
    <style>
      .cls-1 {
        fill: #fff;
        stroke: #fff;
        stroke-miterlimit: 10;
      }

      .cls-2 {
        fill: #ff00b4;
      }
    </style>
  </defs>
  <g id="Layer_1-2" data-name="Layer 1">
    <circle class="cls-2" cx="105.36" cy="105.36" r="105.36"/>
    <path class="cls-1" d="M173.17,141.16c.35.88-.51,1.85-1.01,2.61-7.25,11.02-19.67,20.88-31.94,25.71-37.71,14.85-79.59-4.76-92.71-42.79-2.69-7.8-4.14-18.99-3.59-27.22,2.33-34.84,28.99-62.43,63.9-65.75,3.95-.38,8.55-.46,12.51-.07.47.05,2.4.21,1.87.98-14.64,10.07-26.77,25.62-29.09,43.64-3.59,27.83,16.03,49.61,40.74,58.52,12.55,4.52,26.07,5.53,39.33,4.35ZM114.83,36.29c-1.55-.14-3.13-.08-4.68.06-11.99,1.05-22.53,4.14-32.67,10.62-20.49,13.11-33.11,38.19-30.57,62.56,1.55,14.82,6.22,26.8,15.77,38.2,19.92,23.8,54.14,30.81,81.96,16.63,9.12-4.65,17.3-11.49,23.35-19.72-.34-.28-.82-.23-1.23-.24-1.73-.04-3.48.1-5.22.07-19.65-.41-39.66-6.7-54.07-20.39-25.1-23.84-22.03-58.8,1.52-82.2,1.62-1.61,4.28-3.47,5.63-5.08.13-.16.3-.26.2-.5Z"/>
  </g>
</svg>