<?xml version="1.0" encoding="UTF-8"?>
<svg id="Layer_2" data-name="Layer 2" xmlns="http://www.w3.org/2000/svg" viewBox="0 0 210.71 210.71">
  <defs>
    <style>
      .cls-1 {
        fill: #fff;
        stroke: #fff;
        stroke-miterlimit: 10;
      }

      .cls-2 {
        fill: #ff00b4;
      }
    </style>
  </defs>
  <g id="Layer_1-2" data-name="Layer 1">
    <circle class="cls-2" cx="105.36" cy="105.36" r="105.36"/>
    <g>
      <path class="cls-1" d="M103.97,70.09c16.77-.67,32.3,10.75,36.95,26.75,9.49,32.72-26.51,60.09-55.42,41.84-30.65-19.35-17.84-67.15,18.47-68.6ZM100.08,73.96c-15.21,1.73-27.83,16.55-28.51,31.6-1.31,29.08,32.97,46.45,55.29,27.66,25.79-21.72,7.93-63.2-26.78-59.25Z"/>
      <path class="cls-1" d="M104.92,31.29c.55.57.56,1.75.62,2.52.49,5.76.74,20.25,0,25.74-.45,3.39-3.03,2.78-3.42-.99-.56-5.49-.71-20.39-.02-25.71.22-1.68,1.51-2.9,2.81-1.55Z"/>
      <path class="cls-1" d="M51.83,55.03c.26-.27.72-.37,1.09-.41.61.04,1,.46,1.45.78,3.56,2.56,14.21,13.56,17.23,17.2.73.88,3,3.29,1.46,4.4-1.03.59-1.93-.22-2.68-.76-3-2.13-15.61-14.85-17.94-17.92-.75-.98-1.73-2.11-.6-3.29Z"/>
      <path class="cls-1" d="M158.32,54.96l.29,1.46c-5.55,7.18-12.51,13.38-18.89,19.85-2.51,1.28-3.37-.21-1.94-2.42,2.35-3.63,10.51-11.48,13.96-14.88.78-.77,3.26-3.29,3.91-3.6.89-.42,1.67-.67,2.67-.41Z"/>
      <path class="cls-1" d="M178.17,106.85c.23,1.11.33,2.73-1.14,2.85-3.53-.19-27.85.57-28.84-.98-.18-.28-.08-1.46.48-1.69,1.19-.26,2.43-.61,3.64-.72,6.17-.56,17.04-.48,23.28-.03.9.07,1.77.16,2.58.57Z"/>
      <path class="cls-1" d="M143.03,147.8c-1.15-1.15-6.03-5.9-6.39-6.94-.18-.52-.11-1.07-.09-1.6l2.69.46,18.66,17.21.25,2.24-2.69.2c-3.9-4.09-8.45-7.58-12.43-11.57Z"/>
      <path class="cls-1" d="M51.86,156.37c5.82-3.44,13.5-13.4,19.38-15.76,2.22-.89,2.14,1.01,1.09,2.55-1.67,2.47-14.35,13.17-17.28,15.2-2.83,1.96-4.88,1.78-3.2-2Z"/>
      <path class="cls-1" d="M102.61,154.54c.43-1.52,2.32-1.6,2.88.51,1.3,4.93.4,13.92.49,19.38.03,1.64.96,2.75.15,4.47-1.03,2.17-3.52.7-3.52-.61v-23.75Z"/>
      <path class="cls-1" d="M60.44,108.72c-1.54.36-2.98.86-4.59.99-5.89.48-15.41.46-21.36.2-1.4-.06-1.99-.31-2.07-1.84.28-.75.85-1.13,1.62-1.27,1.35-.25,4.69-.43,6.27-.52,3.81-.2,8.84-.22,12.64,0,1.26.07,5.33.36,6.18.6.69.2,1.47,1.02,1.31,1.84Z"/>
      <path class="cls-1" d="M80.65,55.94c1.75-.44,3.22,3.53,3.77,4.81.43,1,2.94,6.39.97,6.77-2.43,0-6.31-9.11-5.98-10.32.13-.48.76-1.15,1.24-1.27Z"/>
      <path class="cls-1" d="M126.69,55.48c3.76-.32-1.12,8.36-2.06,9.59-.52.68-1.37,1.78-2.37,1.48-.68-.41-.77-.93-.77-1.67,0-1.71,3.43-9.25,5.2-9.4Z"/>
      <path class="cls-1" d="M59.82,124.81c.94-.17,1.47-.21,2.07.65.3,1.54-7.72,6.82-9,7.02-2.56.39-2.66-1.52-1.14-3.11.7-.74,7.13-4.39,8.07-4.55Z"/>
      <path class="cls-1" d="M51.84,86.79c-.95-.97-.67-2.86.7-3.21s10.15,5,9.83,6.47c-.48,2.25-9.71-2.43-10.53-3.27Z"/>
      <path class="cls-1" d="M155.89,131.46c-1.05,1.51-7.86-2.25-9.11-3.16-.95-.69-1.73-1.26-1.51-2.6.88-1.26,9.81,2.68,10.42,3.87.24.46.45,1.52.19,1.89Z"/>
      <path class="cls-1" d="M154.36,84.07c1.63-.23,2.77,1.41,1.35,2.86-.84.85-8.88,5.15-9.47,3.12-.5-1.75,6.74-5.78,8.11-5.98Z"/>
      <path class="cls-1" d="M127.33,159.14c-2.65-.43-3.49-3.4-4.24-5.69-.4-1.21-1.85-4.58.18-4.95,1.54-.28,5.86,9.32,4.06,10.64Z"/>
      <path class="cls-1" d="M86.09,149.97c.84,1.23-3.07,8.29-4.18,8.62-4.33,1.29-.76-4.68.22-6.1s1.89-3.58,3.95-2.52Z"/>
    </g>
  </g>
</svg>